<svg width="36" height="24" viewBox="0 0 36 24" xmlns="http://www.w3.org/2000/svg"><g fill="none" fill-rule="evenodd"><rect stroke="#FFF" x=".5" y=".5" width="35" height="23" rx="5"/><path d="M9.012 16.144c-2.436 0-3.456-1.872-3.456-4.128 0-2.424 1.368-4.14 3.732-4.14.972 0 1.788.336 2.364.828l-.768 1.308c-.432-.408-.888-.624-1.596-.624-1.176 0-2.004.996-2.004 2.268 0 .06 0 .108.012.168.372-.54 1.176-1.032 2.052-1.032 1.44 0 2.724.9 2.724 2.604 0 1.56-1.236 2.748-3.06 2.748zm-.096-1.512c.924 0 1.428-.612 1.428-1.176 0-.84-.72-1.2-1.488-1.2-.6 0-1.176.276-1.56.756.072.768.504 1.62 1.62 1.62zm4.632 1.608h-1.104l2.844-8.484h1.104l-2.844 8.484zm8.676-.24H20.52v-1.656h-3.828V13l3.18-5.004h2.352v4.848h1.032v1.5h-1.032V16zm-1.704-3.156V9.508l-2.16 3.336h2.16zm6.192 3.288c-.972 0-1.788-.324-2.352-.828l.756-1.308c.432.408.888.624 1.596.624 1.32 0 2.004-1.104 2.004-2.256v-.18c-.384.54-1.188 1.032-2.064 1.032-1.44 0-2.736-.9-2.736-2.604 0-1.56 1.248-2.748 3.072-2.748 2.424 0 3.444 1.872 3.444 4.14 0 2.412-1.356 4.128-3.72 4.128zm.42-4.38c.6 0 1.188-.276 1.572-.744-.072-.768-.504-1.632-1.632-1.632-.912 0-1.416.624-1.416 1.176 0 .84.732 1.2 1.476 1.2z" fill="#FFF"/></g></svg>